<svg width="1688" height="316" viewBox="0 0 1688 316" fill="none" xmlns="http://www.w3.org/2000/svg">
<path fill-rule="evenodd" clip-rule="evenodd" d="M322.583 12.4888C320.82 11.6368 318.873 11.1388 316.857 11.0251C314.843 10.9115 312.8 11.1841 310.857 11.8268C308.913 12.4695 307.103 13.4688 305.537 14.7658C303.973 16.0625 302.683 17.6301 301.747 19.3748C300.81 21.1195 300.247 23.0055 300.087 24.9205C299.927 26.8355 300.177 28.7401 300.82 30.5211C301.463 32.3018 302.49 33.9221 303.833 35.2855C305.177 36.6485 306.813 37.7268 308.643 38.4558C321.55 44.1265 333.007 52.2078 342.357 62.2378C351.707 72.2678 358.773 84.0501 363.147 96.9118C367.52 109.773 369.117 123.461 367.847 137.195C366.573 150.929 362.46 164.438 355.74 176.952C354.74 178.668 354.107 180.537 353.877 182.45C353.647 184.362 353.823 186.277 354.4 188.082C354.973 189.886 355.937 191.543 357.227 192.953C358.517 194.363 360.107 195.497 361.907 196.288C363.707 197.079 365.673 197.51 367.697 197.557C369.717 197.603 371.75 197.263 373.673 196.557C375.597 195.851 377.37 194.794 378.89 193.448C380.407 192.102 381.64 190.496 382.513 188.724C391.063 172.8 396.293 155.61 397.91 138.135C399.523 120.66 397.49 103.242 391.927 86.8768C386.36 70.5118 377.373 55.5191 365.477 42.7558C353.577 29.9921 339.003 19.7071 322.583 12.4888ZM294.523 65.8638C292.757 65.0118 290.81 64.5141 288.797 64.4005C286.78 64.2868 284.74 64.5595 282.797 65.2021C280.851 65.8448 279.042 66.8441 277.477 68.1408C275.912 69.4378 274.622 71.0051 273.686 72.7498C272.749 74.4945 272.184 76.3808 272.025 78.2958C271.866 80.2108 272.116 82.1155 272.76 83.8961C273.404 85.6771 274.428 87.2975 275.772 88.6605C277.116 90.0238 278.752 91.1021 280.583 91.8311C286.447 94.4088 291.653 98.0821 295.903 102.641C300.153 107.199 303.363 112.554 305.353 118.4C307.34 124.245 308.067 130.466 307.49 136.708C306.91 142.95 305.043 149.09 301.987 154.777C300.99 156.493 300.353 158.363 300.123 160.275C299.893 162.187 300.073 164.103 300.647 165.907C301.223 167.712 302.183 169.368 303.473 170.778C304.763 172.188 306.357 173.322 308.153 174.113C309.953 174.904 311.923 175.336 313.943 175.382C315.967 175.428 318 175.088 319.923 174.382C321.843 173.676 323.62 172.619 325.137 171.273C326.657 169.928 327.89 168.321 328.76 166.55C338.62 148.175 340.553 127.246 334.133 108.365C327.713 89.4838 313.463 74.1961 294.523 65.8638ZM211.676 34.0301L69.4775 149.182L100.336 239.928L111.089 240.051L106.597 274.303C106.083 278.196 106.402 282.159 107.533 285.916C108.664 289.676 110.58 293.146 113.151 296.089C115.722 299.033 118.888 301.379 122.434 302.976C125.98 304.573 129.824 305.376 133.705 305.336L191.99 304.749C198.496 304.643 204.749 302.183 209.622 297.816C214.495 293.453 217.666 287.466 218.564 280.939L223.758 241.341L282.403 242.023C284.57 242.046 286.713 241.543 288.65 240.553C290.587 239.565 292.26 238.119 293.53 236.34C294.8 234.56 295.627 232.497 295.947 230.325C296.263 228.153 296.063 225.935 295.36 223.859L232.929 40.2655C232.221 38.1898 231.031 36.3168 229.46 34.8038C227.888 33.2908 225.981 32.1821 223.898 31.5711C221.815 30.9601 219.618 30.8645 217.491 31.2925C215.364 31.7205 213.37 32.6591 211.676 34.0301ZM191.719 277.336L133.446 277.919L138.364 240.372L196.479 241.05L191.719 277.336ZM49.1248 257.783L74.7305 248.856L43.8722 158.109L18.2668 167.037C4.14549 171.961 -3.38451 187.593 1.47816 201.892L14.7028 240.784C19.5655 255.083 35.0035 262.706 49.1248 257.783ZM191.684 118.577C191.912 118.271 192.079 117.918 192.174 117.541C192.268 117.164 192.29 116.769 192.238 116.379C192.185 115.989 192.059 115.613 191.867 115.271C191.675 114.929 191.42 114.629 191.118 114.387C190.816 114.146 190.473 113.968 190.108 113.865C189.743 113.761 189.363 113.734 188.991 113.784C188.619 113.834 188.262 113.961 187.94 114.157C187.619 114.354 187.34 114.615 187.118 114.928L179.186 125.858C177.018 125.725 174.856 126.023 172.814 126.736C170.706 127.471 168.839 128.597 167.26 130.017L154.362 126.348C153.634 126.15 152.866 126.258 152.225 126.648C151.585 127.038 151.124 127.68 150.942 128.433C150.761 129.187 150.873 129.991 151.255 130.672C151.638 131.353 152.258 131.856 152.983 132.071L163.424 135.038C161.725 138.388 161.119 142.244 161.696 146.035C163.141 145.053 164.702 144.266 166.343 143.693L188.227 136.063C189.912 135.481 191.606 135.131 193.309 135.013C191.459 131.666 188.637 129.005 185.261 127.424L191.684 118.577ZM148.452 181.432C148.198 180.685 148.236 179.87 148.559 179.167C148.882 178.464 149.463 177.929 150.174 177.682L160.892 173.944L159.217 169.018C158.149 165.879 158.089 162.645 158.862 159.7L148.721 159.06C147.978 158.997 147.281 158.633 146.781 158.046C146.281 157.46 146.016 156.697 146.045 155.922C146.073 155.148 146.392 154.422 146.932 153.902C147.473 153.381 148.193 153.107 148.937 153.138L161.743 153.941C163.456 151.8 165.709 150.204 168.258 149.325L190.138 141.697C192.782 140.775 195.515 140.679 198.079 141.272L207.682 132.656C207.96 132.395 208.287 132.196 208.643 132.07C208.999 131.944 209.377 131.894 209.755 131.923C210.134 131.952 210.505 132.06 210.846 132.239C211.187 132.418 211.492 132.666 211.743 132.967C211.994 133.269 212.186 133.618 212.307 133.995C212.428 134.372 212.477 134.769 212.451 135.162C212.424 135.555 212.321 135.936 212.15 136.284C211.979 136.632 211.742 136.94 211.453 137.188L203.851 144.014C206.338 145.914 208.219 148.556 209.237 151.578L210.912 156.505L221.63 152.767C222.341 152.52 223.124 152.579 223.806 152.932C224.488 153.285 225.014 153.902 225.268 154.649C225.522 155.396 225.483 156.211 225.16 156.914C224.837 157.618 224.256 158.152 223.546 158.4L212.827 162.137L213.146 163.076C214.603 167.353 215.045 171.912 214.434 176.357L224.998 177.021C225.753 177.069 226.465 177.427 226.978 178.016C227.491 178.606 227.764 179.378 227.735 180.164C227.707 180.95 227.38 181.684 226.826 182.206C226.273 182.728 225.538 182.995 224.783 182.947L212.972 182.201C210.566 188.764 205.817 194.059 199.703 196.996L190.816 170.861C190.562 170.115 190.036 169.497 189.354 169.144C188.672 168.791 187.889 168.732 187.179 168.979C186.468 169.227 185.887 169.762 185.565 170.465C185.242 171.168 185.203 171.983 185.457 172.73L194.344 198.865C187.741 200.362 180.781 199.152 174.894 195.482L166.041 203.424C165.761 203.675 165.435 203.866 165.081 203.984C164.728 204.103 164.354 204.147 163.981 204.114C163.607 204.081 163.242 203.972 162.906 203.793C162.571 203.614 162.27 203.369 162.022 203.071C161.775 202.774 161.585 202.429 161.463 202.058C161.341 201.686 161.29 201.295 161.313 200.907C161.336 200.518 161.432 200.14 161.596 199.794C161.76 199.447 161.988 199.14 162.268 198.888L170.193 191.778C167.007 188.658 164.581 184.793 163.127 180.516L162.807 179.577L152.089 183.314C151.378 183.562 150.596 183.503 149.914 183.15C149.231 182.797 148.706 182.179 148.452 181.432Z" fill="white"/>
<path d="M631.28 132.177C643.338 134.901 652.868 140.931 659.87 150.268C667.066 159.41 670.664 169.914 670.664 181.78C670.664 199.287 664.635 213.001 652.577 222.922C640.518 232.842 623.598 237.802 601.815 237.802H500V32.096H598.606C619.611 32.096 636.045 36.7645 647.909 46.1016C659.967 55.4386 665.996 68.5688 665.996 85.4922C665.996 97.5525 662.787 107.668 656.369 115.837C650.145 123.813 641.782 129.259 631.28 132.177ZM557.18 113.795H586.061C600.454 113.795 607.65 107.862 607.65 95.9963C607.65 83.7415 600.454 77.614 586.061 77.614H557.18V113.795ZM590.437 191.701C604.83 191.701 612.026 185.671 612.026 173.61C612.026 167.386 610.081 162.62 606.191 159.313C602.496 156.006 597.147 154.353 590.146 154.353H557.18V191.701H590.437Z" fill="white"/>
<path d="M724.605 58.94C714.492 58.94 706.323 56.2167 700.099 50.7701C694.07 45.129 691.056 38.1262 691.056 29.7618C691.056 21.2028 694.07 14.1028 700.099 8.46169C706.323 2.82056 714.492 0 724.605 0C734.524 0 742.498 2.82056 748.527 8.46169C754.751 14.1028 757.863 21.2028 757.863 29.7618C757.863 38.1262 754.751 45.129 748.527 50.7701C742.498 56.2167 734.524 58.94 724.605 58.94ZM752.903 74.1126V237.802H695.723V74.1126H752.903Z" fill="white"/>
<path d="M861.608 239.845C845.271 239.845 830.587 236.441 817.556 229.633C804.72 222.824 794.607 213.098 787.216 200.454C779.826 187.81 776.13 172.93 776.13 155.812C776.13 138.888 779.826 124.105 787.216 111.461C794.801 98.8169 805.012 89.0908 817.848 82.2825C830.879 75.4743 845.563 72.0702 861.9 72.0702C878.237 72.0702 892.824 75.4743 905.66 82.2825C918.691 89.0908 928.901 98.8169 936.292 111.461C943.877 124.105 947.669 138.888 947.669 155.812C947.669 172.735 943.877 187.616 936.292 200.454C928.901 213.098 918.691 222.824 905.66 229.633C892.629 236.441 877.945 239.845 861.608 239.845ZM861.608 190.242C869.582 190.242 876.195 187.324 881.446 181.488C886.892 175.458 889.615 166.899 889.615 155.812C889.615 144.724 886.892 136.262 881.446 130.427C876.195 124.591 869.679 121.673 861.9 121.673C854.12 121.673 847.605 124.591 842.354 130.427C837.102 136.262 834.477 144.724 834.477 155.812C834.477 167.094 837.005 175.653 842.062 181.488C847.119 187.324 853.634 190.242 861.608 190.242Z" fill="white"/>
<path d="M1104.37 239.845C1080.45 239.845 1060.81 234.204 1045.44 222.922C1030.08 211.445 1021.81 195.105 1020.65 173.902H1081.62C1082.2 181.099 1084.34 186.352 1088.04 189.658C1091.73 192.965 1096.5 194.619 1102.33 194.619C1107.58 194.619 1111.86 193.354 1115.17 190.825C1118.67 188.102 1120.42 184.406 1120.42 179.738C1120.42 173.708 1117.6 169.039 1111.96 165.732C1106.32 162.425 1097.18 158.729 1084.54 154.645C1071.12 150.171 1060.22 145.891 1051.86 141.806C1043.69 137.527 1036.5 131.399 1030.27 123.424C1024.24 115.254 1021.23 104.653 1021.23 91.6196C1021.23 78.3921 1024.54 67.1099 1031.15 57.7729C1037.76 48.2413 1046.9 41.044 1058.57 36.181C1070.24 31.318 1083.47 28.8864 1098.25 28.8864C1122.17 28.8864 1141.23 34.5276 1155.43 45.8098C1169.82 56.8975 1177.5 72.5565 1178.47 92.7867H1116.33C1116.14 86.562 1114.2 81.8935 1110.5 78.7812C1107 75.6688 1102.43 74.1126 1096.79 74.1126C1092.51 74.1126 1089.01 75.377 1086.29 77.9058C1083.56 80.4346 1082.2 84.0332 1082.2 88.7018C1082.2 92.5922 1083.66 95.9963 1086.58 98.9141C1089.69 101.637 1093.48 104.069 1097.96 106.209C1102.43 108.154 1109.04 110.683 1117.79 113.795C1130.82 118.269 1141.52 122.743 1149.88 127.217C1158.44 131.496 1165.73 137.624 1171.76 145.599C1177.99 153.38 1181.1 163.301 1181.1 175.361C1181.1 187.616 1177.99 198.606 1171.76 208.332C1165.73 218.058 1156.89 225.742 1145.22 231.383C1133.74 237.024 1120.13 239.845 1104.37 239.845Z" fill="white"/>
<path d="M1264.86 96.8717C1269.33 89.2853 1275.66 83.2552 1283.82 78.7812C1291.99 74.3072 1301.62 72.0702 1312.71 72.0702C1325.74 72.0702 1337.5 75.4743 1348.01 82.2825C1358.7 89.0908 1367.07 98.8169 1373.09 111.461C1379.32 124.105 1382.43 138.888 1382.43 155.812C1382.43 172.735 1379.32 187.616 1373.09 200.454C1367.07 213.098 1358.7 222.824 1348.01 229.633C1337.5 236.441 1325.74 239.845 1312.71 239.845C1301.62 239.845 1291.99 237.608 1283.82 233.134C1275.85 228.66 1269.53 222.63 1264.86 215.043V316H1207.68V74.1126H1264.86V96.8717ZM1324.37 155.812C1324.37 145.113 1321.46 136.846 1315.62 131.01C1309.98 124.98 1302.98 121.965 1294.62 121.965C1286.25 121.965 1279.16 124.98 1273.32 131.01C1267.68 137.04 1264.86 145.307 1264.86 155.812C1264.86 166.51 1267.68 174.875 1273.32 180.905C1279.16 186.935 1286.25 189.95 1294.62 189.95C1302.98 189.95 1309.98 186.935 1315.62 180.905C1321.46 174.68 1324.37 166.316 1324.37 155.812Z" fill="white"/>
<path d="M1482.11 239.845C1465.77 239.845 1451.09 236.441 1438.06 229.633C1425.22 222.824 1415.11 213.098 1407.72 200.454C1400.33 187.81 1396.63 172.93 1396.63 155.812C1396.63 138.888 1400.33 124.105 1407.72 111.461C1415.3 98.8169 1425.52 89.0908 1438.35 82.2825C1451.38 75.4743 1466.07 72.0702 1482.4 72.0702C1498.74 72.0702 1513.33 75.4743 1526.16 82.2825C1539.19 89.0908 1549.4 98.8169 1556.8 111.461C1564.38 124.105 1568.17 138.888 1568.17 155.812C1568.17 172.735 1564.38 187.616 1556.8 200.454C1549.4 213.098 1539.19 222.824 1526.16 229.633C1513.13 236.441 1498.45 239.845 1482.11 239.845ZM1482.11 190.242C1490.09 190.242 1496.7 187.324 1501.95 181.488C1507.39 175.458 1510.12 166.899 1510.12 155.812C1510.12 144.724 1507.39 136.262 1501.95 130.427C1496.7 124.591 1490.18 121.673 1482.4 121.673C1474.62 121.673 1468.11 124.591 1462.86 130.427C1457.61 136.262 1454.98 144.724 1454.98 155.812C1454.98 167.094 1457.51 175.653 1462.57 181.488C1467.62 187.324 1474.14 190.242 1482.11 190.242Z" fill="white"/>
<path d="M1688 189.075V237.802H1663.2C1621.39 237.802 1600.48 217.086 1600.48 175.653V121.673H1580.35V74.1126H1600.48V34.4303H1657.95V74.1126H1687.71V121.673H1657.95V176.528C1657.95 181.002 1658.92 184.212 1660.87 186.157C1663.01 188.102 1666.51 189.075 1671.37 189.075H1688Z" fill="white"/>
</svg>
