<svg width="500" height="500" viewBox="0 0 500 500" fill="none" xmlns="http://www.w3.org/2000/svg">
<g clip-path="url(#clip0_16_2)">
<path d="M500 250C500 111.929 388.071 0 250 0C111.929 0 0 111.929 0 250C0 388.071 111.929 500 250 500C388.071 500 500 388.071 500 250Z" fill="#1CB359"/>
<path fill-rule="evenodd" clip-rule="evenodd" d="M373.361 104.319C371.597 103.467 369.651 102.969 367.634 102.855C365.621 102.742 363.577 103.014 361.634 103.657C359.691 104.3 357.881 105.299 356.314 106.596C354.751 107.893 353.461 109.46 352.524 111.205C351.587 112.95 351.024 114.836 350.864 116.751C350.704 118.666 350.954 120.57 351.597 122.351C352.241 124.132 353.267 125.752 354.611 127.116C355.954 128.479 357.591 129.557 359.421 130.286C372.327 135.957 383.784 144.038 393.134 154.068C402.484 164.098 409.551 175.88 413.924 188.742C418.297 201.603 419.894 215.292 418.624 229.025C417.351 242.759 413.237 256.269 406.517 268.782C405.517 270.498 404.884 272.368 404.654 274.28C404.424 276.192 404.601 278.108 405.177 279.912C405.751 281.717 406.714 283.373 408.004 284.783C409.294 286.193 410.884 287.327 412.684 288.118C414.484 288.909 416.451 289.341 418.474 289.387C420.494 289.433 422.527 289.093 424.451 288.387C426.374 287.681 428.147 286.624 429.667 285.278C431.184 283.933 432.417 282.326 433.291 280.555C441.841 264.63 447.071 247.44 448.687 229.965C450.301 212.49 448.267 195.072 442.704 178.707C437.137 162.342 428.151 147.349 416.254 134.586C404.354 121.822 389.781 111.537 373.361 104.319ZM345.301 157.694C343.534 156.842 341.587 156.344 339.574 156.231C337.557 156.117 335.517 156.39 333.574 157.032C331.628 157.675 329.819 158.674 328.254 159.971C326.689 161.268 325.4 162.835 324.463 164.58C323.526 166.325 322.962 168.211 322.803 170.126C322.644 172.041 322.893 173.946 323.537 175.726C324.181 177.507 325.205 179.128 326.549 180.491C327.894 181.854 329.53 182.932 331.361 183.661C337.224 186.239 342.431 189.912 346.681 194.471C350.931 199.03 354.141 204.385 356.131 210.23C358.117 216.075 358.844 222.297 358.267 228.538C357.687 234.78 355.821 240.92 352.764 246.608C351.767 248.323 351.131 250.193 350.901 252.105C350.671 254.017 350.851 255.933 351.424 257.738C352.001 259.542 352.961 261.199 354.251 262.609C355.541 264.019 357.134 265.153 358.931 265.944C360.731 266.735 362.701 267.166 364.721 267.212C366.744 267.259 368.777 266.919 370.701 266.213C372.621 265.507 374.397 264.449 375.914 263.104C377.434 261.758 378.667 260.151 379.537 258.38C389.397 240.006 391.331 219.077 384.911 200.195C378.491 181.314 364.241 166.026 345.301 157.694ZM262.454 125.86L120.255 241.012L151.113 331.759L161.867 331.881L157.374 366.133C156.861 370.026 157.18 373.99 158.311 377.746C159.442 381.506 161.357 384.976 163.928 387.92C166.499 390.863 169.665 393.21 173.211 394.806C176.758 396.403 180.601 397.206 184.482 397.166L242.768 396.58C249.274 396.473 255.526 394.013 260.399 389.646C265.272 385.283 268.443 379.296 269.342 372.77L274.535 333.171L333.18 333.853C335.347 333.876 337.491 333.373 339.427 332.384C341.364 331.395 343.037 329.95 344.307 328.17C345.577 326.39 346.404 324.327 346.724 322.155C347.041 319.983 346.841 317.766 346.137 315.689L283.706 132.096C282.998 130.02 281.809 128.147 280.237 126.634C278.666 125.121 276.758 124.012 274.675 123.401C272.593 122.79 270.395 122.695 268.268 123.123C266.142 123.551 264.148 124.489 262.454 125.86ZM242.497 369.166L184.223 369.75L189.142 332.203L247.256 332.88L242.497 369.166ZM99.9022 349.613L125.508 340.686L94.6495 249.94L69.0442 258.867C54.9228 263.791 47.3928 279.423 52.2555 293.722L65.4802 332.614C70.3428 346.913 85.7808 354.536 99.9022 349.613ZM242.462 210.408C242.69 210.101 242.856 209.749 242.951 209.371C243.046 208.994 243.068 208.599 243.015 208.209C242.962 207.82 242.836 207.443 242.644 207.101C242.452 206.759 242.198 206.459 241.896 206.217C241.594 205.976 241.25 205.799 240.885 205.695C240.52 205.591 240.14 205.564 239.768 205.614C239.396 205.665 239.039 205.792 238.718 205.988C238.396 206.184 238.117 206.446 237.896 206.758L229.963 217.689C227.796 217.555 225.634 217.853 223.592 218.566C221.484 219.301 219.616 220.427 218.037 221.847L205.14 218.179C204.411 217.98 203.643 218.088 203.003 218.478C202.363 218.869 201.902 219.51 201.72 220.264C201.539 221.017 201.651 221.822 202.033 222.503C202.415 223.184 203.036 223.686 203.761 223.901L214.201 226.868C212.503 230.218 211.897 234.074 212.474 237.866C213.919 236.883 215.48 236.096 217.121 235.523L239.004 227.893C240.69 227.311 242.384 226.961 244.087 226.844C242.236 223.496 239.414 220.835 236.039 219.254L242.462 210.408ZM199.229 273.262C198.975 272.516 199.014 271.701 199.337 270.997C199.66 270.294 200.24 269.76 200.951 269.512L211.669 265.775L209.994 260.848C208.927 257.709 208.866 254.475 209.639 251.53L199.499 250.891C198.756 250.827 198.059 250.463 197.558 249.877C197.058 249.29 196.794 248.528 196.822 247.753C196.85 246.978 197.169 246.253 197.71 245.732C198.251 245.212 198.97 244.938 199.715 244.969L212.521 245.771C214.233 243.631 216.487 242.035 219.036 241.156L240.916 233.527C243.56 232.605 246.293 232.509 248.856 233.102L258.459 224.487C258.738 224.226 259.064 224.026 259.42 223.901C259.776 223.775 260.155 223.725 260.533 223.754C260.911 223.783 261.282 223.89 261.623 224.069C261.964 224.249 262.269 224.496 262.52 224.798C262.771 225.099 262.963 225.449 263.085 225.826C263.206 226.202 263.255 226.599 263.228 226.992C263.201 227.385 263.098 227.767 262.927 228.115C262.756 228.463 262.519 228.77 262.23 229.019L254.628 235.844C257.116 237.744 258.997 240.386 260.014 243.408L261.689 248.335L272.408 244.598C273.118 244.35 273.901 244.409 274.583 244.762C275.265 245.115 275.791 245.733 276.045 246.48C276.299 247.227 276.26 248.041 275.937 248.745C275.614 249.448 275.034 249.982 274.323 250.23L263.604 253.967L263.924 254.906C265.381 259.183 265.823 263.742 265.211 268.188L275.775 268.851C276.53 268.899 277.242 269.257 277.755 269.847C278.269 270.436 278.541 271.208 278.513 271.994C278.484 272.78 278.157 273.515 277.603 274.037C277.05 274.559 276.315 274.825 275.56 274.777L263.75 274.032C261.343 280.595 256.594 285.889 250.48 288.826L241.593 262.692C241.339 261.945 240.814 261.327 240.131 260.974C239.449 260.621 238.667 260.562 237.956 260.81C237.245 261.058 236.665 261.592 236.342 262.295C236.019 262.999 235.981 263.813 236.235 264.56L245.122 290.695C238.519 292.192 231.558 290.982 225.671 287.312L216.818 295.254C216.538 295.506 216.212 295.696 215.859 295.814C215.505 295.933 215.131 295.977 214.758 295.944C214.385 295.912 214.02 295.803 213.684 295.624C213.348 295.445 213.047 295.199 212.8 294.902C212.552 294.604 212.362 294.259 212.241 293.888C212.119 293.517 212.068 293.126 212.091 292.737C212.113 292.349 212.209 291.971 212.373 291.624C212.537 291.278 212.766 290.97 213.046 290.719L220.971 283.608C217.785 280.489 215.359 276.623 213.904 272.346L213.585 271.407L202.866 275.144C202.155 275.392 201.373 275.333 200.691 274.98C200.009 274.627 199.483 274.009 199.229 273.262Z" fill="white"/>
</g>
<defs>
<clipPath id="clip0_16_2">
<rect width="500" height="500" fill="white"/>
</clipPath>
</defs>
</svg>
