<svg width="1188" height="1065" viewBox="0 0 1188 1065" fill="none" xmlns="http://www.w3.org/2000/svg">
<path fill-rule="evenodd" clip-rule="evenodd" d="M862.306 3.23214C858.478 1.38247 854.252 0.301334 849.874 0.0545665C845.503 -0.192201 841.067 0.399748 836.848 1.79496C832.63 3.19018 828.7 5.35971 825.299 8.17547C821.905 10.9905 819.105 14.3939 817.071 18.1815C815.038 21.9691 813.815 26.0636 813.467 30.221C813.12 34.3784 813.663 38.5134 815.059 42.3799C816.456 46.2457 818.685 49.7634 821.601 52.7232C824.518 55.6822 828.071 58.0233 832.043 59.6059C860.063 71.9168 884.934 89.4612 905.233 111.236C925.531 133.011 940.872 158.59 950.366 186.513C959.86 214.434 963.327 244.151 960.57 273.967C957.805 303.782 948.876 333.111 934.287 360.278C932.116 364.003 930.741 368.062 930.242 372.214C929.742 376.364 930.126 380.523 931.378 384.441C932.623 388.358 934.714 391.955 937.514 395.016C940.315 398.077 943.767 400.539 947.674 402.256C951.582 403.973 955.851 404.91 960.244 405.01C964.629 405.111 969.043 404.373 973.219 402.84C977.394 401.307 981.244 399.012 984.544 396.091C987.836 393.169 990.514 389.681 992.41 385.836C1010.97 351.264 1022.33 313.945 1025.84 276.007C1029.34 238.069 1024.92 200.256 1012.85 164.727C1000.76 129.199 981.251 96.65 955.425 68.9411C929.59 41.2315 897.953 18.903 862.306 3.23214ZM801.39 119.108C797.554 117.258 793.328 116.178 788.958 115.931C784.58 115.684 780.151 116.276 775.932 117.672C771.707 119.067 767.78 121.236 764.383 124.051C760.985 126.867 758.186 130.27 756.153 134.057C754.119 137.845 752.893 141.94 752.548 146.098C752.203 150.255 752.745 154.39 754.142 158.256C755.54 162.122 757.764 165.64 760.682 168.599C763.6 171.559 767.152 173.9 771.127 175.482C783.856 181.079 795.159 189.053 804.386 198.95C813.612 208.847 820.581 220.472 824.901 233.162C829.214 245.853 830.791 259.359 829.54 272.909C828.28 286.46 824.228 299.79 817.592 312.138C815.429 315.862 814.046 319.921 813.547 324.073C813.048 328.224 813.439 332.383 814.683 336.301C815.935 340.218 818.019 343.814 820.82 346.875C823.62 349.936 827.079 352.398 830.98 354.116C834.887 355.833 839.164 356.769 843.549 356.87C847.942 356.97 852.356 356.232 856.531 354.7C860.7 353.167 864.557 350.871 867.849 347.95C871.149 345.029 873.826 341.541 875.715 337.695C897.121 297.805 901.318 252.368 887.38 211.377C873.443 170.387 842.507 137.197 801.39 119.108ZM621.534 49.9979L312.831 299.99L379.822 496.998L403.167 497.264L393.414 571.624C392.299 580.077 392.992 588.681 395.448 596.837C397.902 604.999 402.062 612.533 407.643 618.923C413.225 625.313 420.098 630.407 427.796 633.873C435.495 637.34 443.839 639.084 452.264 638.997L578.798 637.723C592.921 637.492 606.496 632.151 617.074 622.671C627.653 613.198 634.538 600.202 636.488 586.032L647.763 500.065L775.077 501.545C779.782 501.596 784.435 500.503 788.639 498.355C792.844 496.209 796.476 493.071 799.233 489.208C801.99 485.343 803.785 480.865 804.48 476.15C805.167 471.434 804.733 466.62 803.206 462.112L667.672 63.5346C666.136 59.0284 663.553 54.9622 660.141 51.6775C656.73 48.3928 652.589 45.9859 648.067 44.6594C643.546 43.333 638.776 43.1253 634.158 44.0545C629.541 44.9837 625.212 47.0215 621.534 49.9979ZM578.21 578.21L451.702 579.476L462.38 497.962L588.542 499.433L578.21 578.21ZM268.647 535.76L324.235 516.38L257.243 319.371L201.656 338.753C171 349.442 154.652 383.38 165.209 414.422L193.919 498.855C204.475 529.898 237.99 546.448 268.647 535.76ZM578.134 233.548C578.629 232.882 578.99 232.118 579.196 231.298C579.401 230.479 579.449 229.622 579.335 228.776C579.22 227.93 578.947 227.112 578.529 226.369C578.113 225.627 577.56 224.976 576.905 224.451C576.249 223.927 575.504 223.542 574.711 223.317C573.918 223.092 573.094 223.033 572.287 223.142C571.479 223.251 570.704 223.527 570.006 223.952C569.308 224.379 568.702 224.947 568.221 225.625L551 249.355C546.295 249.066 541.6 249.712 537.167 251.26C532.591 252.856 528.537 255.3 525.109 258.383L497.11 250.419C495.528 249.988 493.861 250.222 492.471 251.069C491.081 251.917 490.08 253.31 489.686 254.945C489.292 256.581 489.536 258.328 490.365 259.806C491.195 261.285 492.543 262.376 494.116 262.843L516.782 269.283C513.094 276.556 511.779 284.928 513.032 293.159C516.168 291.026 519.557 289.318 523.119 288.073L570.627 271.508C574.287 270.245 577.964 269.485 581.661 269.23C577.644 261.963 571.517 256.186 564.189 252.753L578.134 233.548ZM484.279 370.004C483.727 368.383 483.811 366.614 484.512 365.087C485.213 363.56 486.474 362.4 488.017 361.862L511.286 353.749L507.649 343.054C505.331 336.238 505.2 329.217 506.878 322.824L484.863 321.436C483.25 321.298 481.738 320.508 480.652 319.234C479.565 317.961 478.992 316.306 479.053 314.623C479.115 312.942 479.806 311.367 480.98 310.237C482.155 309.107 483.717 308.512 485.333 308.579L513.133 310.321C516.851 305.675 521.743 302.21 527.277 300.301L574.777 283.74C580.517 281.738 586.45 281.53 592.015 282.817L612.863 264.113C613.468 263.547 614.177 263.114 614.95 262.841C615.722 262.568 616.544 262.459 617.364 262.522C618.186 262.585 618.991 262.818 619.731 263.207C620.472 263.597 621.134 264.134 621.679 264.789C622.224 265.443 622.641 266.202 622.904 267.02C623.167 267.838 623.273 268.699 623.215 269.552C623.157 270.406 622.934 271.234 622.563 271.99C622.191 272.745 621.677 273.412 621.05 273.952L604.547 288.77C609.946 292.895 614.03 298.63 616.238 305.192L619.875 315.888L643.144 307.774C644.687 307.236 646.386 307.364 647.867 308.131C649.347 308.897 650.489 310.238 651.041 311.86C651.592 313.481 651.508 315.25 650.807 316.777C650.106 318.304 648.845 319.464 647.302 320.002L624.033 328.115L624.726 330.153C627.889 339.438 628.849 349.336 627.521 358.987L650.455 360.428C652.094 360.532 653.639 361.309 654.754 362.589C655.868 363.868 656.46 365.545 656.398 367.251C656.336 368.957 655.626 370.552 654.424 371.685C653.222 372.818 651.627 373.397 649.988 373.293L624.348 371.674C619.123 385.923 608.815 397.416 595.542 403.793L576.248 347.056C575.697 345.435 574.556 344.093 573.075 343.326C571.594 342.56 569.895 342.432 568.352 342.97C566.809 343.508 565.549 344.668 564.848 346.195C564.147 347.722 564.063 349.491 564.615 351.112L583.908 407.85C569.573 411.101 554.463 408.473 541.682 400.506L522.463 417.748C521.855 418.294 521.147 418.707 520.38 418.964C519.613 419.222 518.801 419.317 517.991 419.246C517.18 419.175 516.388 418.939 515.659 418.55C514.93 418.162 514.277 417.629 513.739 416.983C513.202 416.336 512.789 415.588 512.525 414.782C512.261 413.976 512.15 413.127 512.2 412.283C512.249 411.44 512.458 410.62 512.814 409.867C513.17 409.115 513.666 408.447 514.274 407.901L531.478 392.465C524.561 385.692 519.295 377.3 516.137 368.015L515.444 365.977L492.174 374.09C490.631 374.628 488.933 374.5 487.452 373.734C485.971 372.968 484.83 371.626 484.279 370.004Z" fill="white"/>
<path d="M131.28 881.177C143.338 883.901 152.868 889.931 159.87 899.268C167.066 908.41 170.664 918.914 170.664 930.78C170.664 948.287 164.635 962.001 152.577 971.922C140.518 981.842 123.598 986.802 101.815 986.802H0V781.096H98.6059C119.611 781.096 136.045 785.765 147.909 795.102C159.967 804.439 165.996 817.569 165.996 834.492C165.996 846.552 162.787 856.668 156.369 864.837C150.145 872.813 141.782 878.259 131.28 881.177ZM57.1797 862.795H86.0614C100.454 862.795 107.65 856.862 107.65 844.996C107.65 832.741 100.454 826.614 86.0614 826.614H57.1797V862.795ZM90.4374 940.701C104.83 940.701 112.026 934.671 112.026 922.61C112.026 916.386 110.081 911.62 106.191 908.313C102.496 905.006 97.1472 903.353 90.1456 903.353H57.1797V940.701H90.4374Z" fill="white"/>
<path d="M224.605 807.94C214.492 807.94 206.323 805.217 200.099 799.77C194.07 794.129 191.056 787.126 191.056 778.762C191.056 770.203 194.07 763.103 200.099 757.462C206.323 751.821 214.492 749 224.605 749C234.524 749 242.498 751.821 248.527 757.462C254.751 763.103 257.863 770.203 257.863 778.762C257.863 787.126 254.751 794.129 248.527 799.77C242.498 805.217 234.524 807.94 224.605 807.94ZM252.903 823.113V986.802H195.723V823.113H252.903Z" fill="white"/>
<path d="M361.608 988.845C345.271 988.845 330.587 985.441 317.556 978.633C304.72 971.824 294.607 962.098 287.216 949.454C279.826 936.81 276.13 921.93 276.13 904.812C276.13 887.888 279.826 873.105 287.216 860.461C294.801 847.817 305.012 838.091 317.848 831.283C330.879 824.474 345.563 821.07 361.9 821.07C378.237 821.07 392.824 824.474 405.66 831.283C418.691 838.091 428.901 847.817 436.292 860.461C443.877 873.105 447.669 887.888 447.669 904.812C447.669 921.735 443.877 936.616 436.292 949.454C428.901 962.098 418.691 971.824 405.66 978.633C392.629 985.441 377.945 988.845 361.608 988.845ZM361.608 939.242C369.582 939.242 376.195 936.324 381.446 930.488C386.892 924.458 389.615 915.899 389.615 904.812C389.615 893.724 386.892 885.262 381.446 879.427C376.195 873.591 369.679 870.673 361.9 870.673C354.12 870.673 347.605 873.591 342.354 879.427C337.102 885.262 334.477 893.724 334.477 904.812C334.477 916.094 337.005 924.653 342.062 930.488C347.119 936.324 353.634 939.242 361.608 939.242Z" fill="white"/>
<path d="M604.374 988.845C580.452 988.845 560.808 983.204 545.443 971.922C530.079 960.445 521.813 944.105 520.646 922.902H581.618C582.202 930.099 584.341 935.352 588.037 938.658C591.732 941.965 596.497 943.619 602.331 943.619C607.583 943.619 611.861 942.354 615.168 939.825C618.669 937.102 620.419 933.406 620.419 928.738C620.419 922.708 617.599 918.039 611.959 914.732C606.318 911.425 597.178 907.729 584.536 903.645C571.116 899.171 560.225 894.891 551.862 890.806C543.693 886.527 536.497 880.399 530.273 872.424C524.244 864.254 521.23 853.653 521.23 840.62C521.23 827.392 524.536 816.11 531.149 806.773C537.761 797.241 546.902 790.044 558.571 785.181C570.241 780.318 583.466 777.886 598.247 777.886C622.169 777.886 641.229 783.528 655.427 794.81C669.819 805.898 677.501 821.556 678.474 841.787H616.335C616.14 835.562 614.195 830.894 610.5 827.781C606.999 824.669 602.429 823.113 596.789 823.113C592.51 823.113 589.009 824.377 586.286 826.906C583.563 829.435 582.202 833.033 582.202 837.702C582.202 841.592 583.661 844.996 586.578 847.914C589.69 850.637 593.482 853.069 597.955 855.209C602.429 857.154 609.041 859.683 617.793 862.795C630.824 867.269 641.521 871.743 649.884 876.217C658.442 880.496 665.735 886.624 671.764 894.599C677.988 902.38 681.1 912.301 681.1 924.361C681.1 936.616 677.988 947.606 671.764 957.332C665.735 967.058 656.886 974.742 645.216 980.383C633.741 986.024 620.127 988.845 604.374 988.845Z" fill="white"/>
<path d="M764.861 845.872C769.334 838.285 775.655 832.255 783.824 827.781C791.992 823.307 801.62 821.07 812.705 821.07C825.736 821.07 837.503 824.474 848.005 831.283C858.702 838.091 867.065 847.817 873.094 860.461C879.318 873.105 882.43 887.888 882.43 904.812C882.43 921.735 879.318 936.616 873.094 949.454C867.065 962.098 858.702 971.824 848.005 978.633C837.503 985.441 825.736 988.845 812.705 988.845C801.62 988.845 791.992 986.608 783.824 982.134C775.85 977.66 769.529 971.63 764.861 964.043V1065H707.681V823.113H764.861V845.872ZM824.375 904.812C824.375 894.113 821.457 885.846 815.623 880.01C809.983 873.98 802.981 870.965 794.618 870.965C786.255 870.965 779.156 873.98 773.321 880.01C767.681 886.04 764.861 894.307 764.861 904.812C764.861 915.51 767.681 923.875 773.321 929.905C779.156 935.935 786.255 938.95 794.618 938.95C802.981 938.95 809.983 935.935 815.623 929.905C821.457 923.68 824.375 915.316 824.375 904.812Z" fill="white"/>
<path d="M982.111 988.845C965.774 988.845 951.09 985.441 938.06 978.633C925.223 971.824 915.11 962.098 907.719 949.454C900.329 936.81 896.633 921.93 896.633 904.812C896.633 887.888 900.329 873.105 907.719 860.461C915.304 847.817 925.515 838.091 938.351 831.283C951.382 824.474 966.066 821.07 982.403 821.07C998.74 821.07 1013.33 824.474 1026.16 831.283C1039.19 838.091 1049.4 847.817 1056.8 860.461C1064.38 873.105 1068.17 887.888 1068.17 904.812C1068.17 921.735 1064.38 936.616 1056.8 949.454C1049.4 962.098 1039.19 971.824 1026.16 978.633C1013.13 985.441 998.448 988.845 982.111 988.845ZM982.111 939.242C990.085 939.242 996.698 936.324 1001.95 930.488C1007.39 924.458 1010.12 915.899 1010.12 904.812C1010.12 893.724 1007.39 885.262 1001.95 879.427C996.698 873.591 990.183 870.673 982.403 870.673C974.624 870.673 968.108 873.591 962.857 879.427C957.606 885.262 954.98 893.724 954.98 904.812C954.98 916.094 957.509 924.653 962.565 930.488C967.622 936.324 974.137 939.242 982.111 939.242Z" fill="white"/>
<path d="M1188 938.075V986.802H1163.2C1121.39 986.802 1100.48 966.086 1100.48 924.653V870.673H1080.35V823.113H1100.48V783.43H1157.95V823.113H1187.71V870.673H1157.95V925.528C1157.95 930.002 1158.92 933.212 1160.87 935.157C1163.01 937.102 1166.51 938.075 1171.37 938.075H1188Z" fill="white"/>
</svg>
